# xmcd
#
# Track frame offsets: 
#        150
#        9557
#        22117
#        32540
#        43102
#        53972
#        66352
#        78182
#        87785
#        97927
#        107570
#        123640
#        138082
#        147330
#        158445
#        167920
#        177180
#        191602
#        202327
#        213575
#        223180
#        234250
#        246980
#        257847
#
# Disc length: 3554 seconds
#
# Revision: 0
# Processed by: cddbd v1.4PL0 Copyright (c) Steve Scherf et al.
# Submitted via: ExactAudioCopy v0.90a11
#
DISCID=560de018
DTITLE=Jimmy Day - Steel and Strings
DYEAR=1900
DGENRE=
TTITLE0=Steel Guitar Rag
TTITLE1=Panhandle Rag
TTITLE2=Roadside Rag
TTITLE3=Texas Playboy Rag
TTITLE4=Remington Ride
TTITLE5=Coconut Grove
TTITLE6=Bootheel Drag
TTITLE7=Bud's Bounce
TTITLE8=B. Bowman Hop
TTITLE9=Georgia Steel Guitar
TTITLE10=Steelin' The Blues
TTITLE11=Indian Love Call
TTITLE12=Please Help Me, I'm Falling
TTITLE13=I Love You Because
TTITLE14=Am I That Easy To Forget
TTITLE15=A Fallen Star
TTITLE16=He Thinks I Still Care
TTITLE17=Making Believe
TTITLE18=I Love You So Much It Hurts
TTITLE19=Wild Side Of Life
TTITLE20=Release Me
TTITLE21=Funny How Time Slips Away
TTITLE22=I Can't Stop Loving You
TTITLE23=I Fall To Pieces
EXTD=
EXTT0=
EXTT1=
EXTT2=
EXTT3=
EXTT4=
EXTT5=
EXTT6=
EXTT7=
EXTT8=
EXTT9=
EXTT10=
EXTT11=
EXTT12=
EXTT13=
EXTT14=
EXTT15=
EXTT16=
EXTT17=
EXTT18=
EXTT19=
EXTT20=
EXTT21=
EXTT22=
EXTT23=
PLAYORDER=
